<svg xmlns="http://www.w3.org/2000/svg" xmlns:xlink="http://www.w3.org/1999/xlink" width="300" zoomAndPan="magnify" viewBox="0 0 224.87999 52.499999" height="70" preserveAspectRatio="xMidYMid meet" version="1.0"><defs><g/><clipPath id="c015b95765"><rect x="0" width="54" y="0" height="32"/></clipPath><clipPath id="61130de068"><path d="M 84 22 L 102 22 L 102 52.003906 L 84 52.003906 Z M 84 22 " clip-rule="nonzero"/></clipPath><clipPath id="385a7d2a0e"><path d="M 3 5 L 17.800781 5 L 17.800781 27 L 3 27 Z M 3 5 " clip-rule="nonzero"/></clipPath><clipPath id="eb3c84ce7c"><rect x="0" width="18" y="0" height="31"/></clipPath><clipPath id="84b3b91185"><path d="M 119 22 L 219 22 L 219 52.003906 L 119 52.003906 Z M 119 22 " clip-rule="nonzero"/></clipPath><clipPath id="f959aeb547"><path d="M 0.632812 10 L 16 10 L 16 27 L 0.632812 27 Z M 0.632812 10 " clip-rule="nonzero"/></clipPath><clipPath id="b3d44c2cf5"><path d="M 89 4 L 99.765625 4 L 99.765625 27 L 89 27 Z M 89 4 " clip-rule="nonzero"/></clipPath><clipPath id="4a2387a8d3"><rect x="0" width="100" y="0" height="31"/></clipPath><clipPath id="592c0bcd28"><path d="M 84 35 L 105 35 L 105 45 L 84 45 Z M 84 35 " clip-rule="nonzero"/></clipPath><clipPath id="707df33e1b"><path d="M 103.601562 35.566406 L 104.679688 44.542969 L 85.144531 46.882812 L 84.070312 37.90625 Z M 103.601562 35.566406 " clip-rule="nonzero"/></clipPath><clipPath id="4bde41e4b1"><path d="M 84.628906 42.390625 L 104.679688 44.542969 L 103.601562 35.566406 Z M 84.628906 42.390625 " clip-rule="nonzero"/></clipPath><clipPath id="73bd30a5ad"><path d="M 0.445312 0.421875 L 20.890625 0.421875 L 20.890625 9.695312 L 0.445312 9.695312 Z M 0.445312 0.421875 " clip-rule="nonzero"/></clipPath><clipPath id="439bc9f5f2"><path d="M 19.601562 0.566406 L 20.679688 9.542969 L 1.144531 11.882812 L 0.0703125 2.90625 Z M 19.601562 0.566406 " clip-rule="nonzero"/></clipPath><clipPath id="ebf7e88cd7"><path d="M 0.628906 7.390625 L 20.679688 9.542969 L 19.601562 0.566406 Z M 0.628906 7.390625 " clip-rule="nonzero"/></clipPath><clipPath id="50b140dac1"><rect x="0" width="21" y="0" height="10"/></clipPath><clipPath id="10a0316583"><path d="M 115 34 L 136 34 L 136 44 L 115 44 Z M 115 34 " clip-rule="nonzero"/></clipPath><clipPath id="0ff7d2e2be"><path d="M 116.320312 43.332031 L 115.320312 34.347656 L 134.871094 32.167969 L 135.871094 41.15625 Z M 116.320312 43.332031 " clip-rule="nonzero"/></clipPath><clipPath id="d075d8ed3f"><path d="M 135.347656 36.664062 L 115.320312 34.347656 L 116.320312 43.332031 Z M 135.347656 36.664062 " clip-rule="nonzero"/></clipPath><clipPath id="fd292319a5"><path d="M 0.113281 0.234375 L 20.558594 0.234375 L 20.558594 9.503906 L 0.113281 9.503906 Z M 0.113281 0.234375 " clip-rule="nonzero"/></clipPath><clipPath id="81806740f7"><path d="M 1.320312 9.332031 L 0.320312 0.347656 L 19.871094 -1.832031 L 20.871094 7.15625 Z M 1.320312 9.332031 " clip-rule="nonzero"/></clipPath><clipPath id="0e430af1c2"><path d="M 20.347656 2.664062 L 0.320312 0.347656 L 1.320312 9.332031 Z M 20.347656 2.664062 " clip-rule="nonzero"/></clipPath><clipPath id="85603a3aba"><rect x="0" width="21" y="0" height="10"/></clipPath><clipPath id="83445c8a70"><path d="M 101 30 L 120 30 L 120 49 L 101 49 Z M 101 30 " clip-rule="nonzero"/></clipPath><clipPath id="66ec9e77c0"><path d="M 99.988281 31.496094 L 118.171875 29.316406 L 120.347656 47.5 L 102.167969 49.675781 Z M 99.988281 31.496094 " clip-rule="nonzero"/></clipPath><clipPath id="4facf6ef10"><path d="M 109.078125 30.40625 C 104.058594 31.007812 100.476562 35.566406 101.078125 40.585938 C 101.679688 45.605469 106.238281 49.1875 111.257812 48.585938 C 116.277344 47.984375 119.859375 43.429688 119.257812 38.40625 C 118.65625 33.386719 114.101562 29.804688 109.078125 30.40625 Z M 109.078125 30.40625 " clip-rule="nonzero"/></clipPath><clipPath id="d98bb8eac7"><path d="M 0 0 L 18.871094 0 L 18.871094 19 L 0 19 Z M 0 0 " clip-rule="nonzero"/></clipPath><clipPath id="98fc3343ae"><path d="M -1.011719 1.496094 L 17.171875 -0.683594 L 19.347656 17.5 L 1.167969 19.675781 Z M -1.011719 1.496094 " clip-rule="nonzero"/></clipPath><clipPath id="4468f9f90f"><path d="M 8.078125 0.40625 C 3.058594 1.007812 -0.523438 5.566406 0.078125 10.585938 C 0.679688 15.605469 5.238281 19.1875 10.257812 18.585938 C 15.277344 17.984375 18.859375 13.429688 18.257812 8.40625 C 17.65625 3.386719 13.101562 -0.195312 8.078125 0.40625 Z M 8.078125 0.40625 " clip-rule="nonzero"/></clipPath><clipPath id="bf3e77fda3"><rect x="0" width="19" y="0" height="19"/></clipPath><clipPath id="333e9b5d7f"><path d="M 114 35 L 133 35 L 133 43 L 114 43 Z M 114 35 " clip-rule="nonzero"/></clipPath><clipPath id="719fb740dd"><path d="M 115.773438 42.433594 L 114.902344 35.164062 L 132.339844 33.074219 L 133.210938 40.34375 Z M 115.773438 42.433594 " clip-rule="nonzero"/></clipPath><clipPath id="bc555616a2"><path d="M 132.773438 36.707031 L 114.902344 35.164062 L 115.773438 42.433594 Z M 132.773438 36.707031 " clip-rule="nonzero"/></clipPath><clipPath id="bf15d89ed3"><path d="M 0.875 0 L 18.945312 0 L 18.945312 7.554688 L 0.875 7.554688 Z M 0.875 0 " clip-rule="nonzero"/></clipPath><clipPath id="4bea32248c"><path d="M 1.773438 7.433594 L 0.902344 0.164062 L 18.339844 -1.925781 L 19.210938 5.34375 Z M 1.773438 7.433594 " clip-rule="nonzero"/></clipPath><clipPath id="c3f46e8504"><path d="M 18.773438 1.707031 L 0.902344 0.164062 L 1.773438 7.433594 Z M 18.773438 1.707031 " clip-rule="nonzero"/></clipPath><clipPath id="11f4e3d1da"><rect x="0" width="19" y="0" height="8"/></clipPath><clipPath id="a436b90d99"><path d="M 86 36 L 105 36 L 105 44 L 86 44 Z M 86 36 " clip-rule="nonzero"/></clipPath><clipPath id="4906d1ff35"><path d="M 103.738281 36.359375 L 104.621094 43.625 L 87.21875 45.746094 L 86.332031 38.476562 Z M 103.738281 36.359375 " clip-rule="nonzero"/></clipPath><clipPath id="ea8a5537f0"><path d="M 86.777344 42.113281 L 104.621094 43.625 L 103.738281 36.359375 Z M 86.777344 42.113281 " clip-rule="nonzero"/></clipPath><clipPath id="f66381ad5a"><path d="M 0.585938 0.136719 L 18.652344 0.136719 L 18.652344 7.742188 L 0.585938 7.742188 Z M 0.585938 0.136719 " clip-rule="nonzero"/></clipPath><clipPath id="39fdfd3816"><path d="M 17.738281 0.359375 L 18.621094 7.625 L 1.21875 9.746094 L 0.332031 2.476562 Z M 17.738281 0.359375 " clip-rule="nonzero"/></clipPath><clipPath id="5f1f392b8f"><path d="M 0.777344 6.113281 L 18.621094 7.625 L 17.738281 0.359375 Z M 0.777344 6.113281 " clip-rule="nonzero"/></clipPath><clipPath id="5dc7163ab0"><rect x="0" width="19" y="0" height="8"/></clipPath><clipPath id="b010dbd9fb"><path d="M 101 31 L 119 31 L 119 48 L 101 48 Z M 101 31 " clip-rule="nonzero"/></clipPath><clipPath id="b34c2d9eb3"><path d="M 100.988281 32.277344 L 117.386719 30.316406 L 119.351562 46.714844 L 102.953125 48.679688 Z M 100.988281 32.277344 " clip-rule="nonzero"/></clipPath><clipPath id="9d9924a294"><path d="M 109.1875 31.296875 C 104.660156 31.839844 101.425781 35.949219 101.96875 40.480469 C 102.511719 45.007812 106.621094 48.238281 111.152344 47.695312 C 115.679688 47.152344 118.910156 43.042969 118.367188 38.515625 C 117.828125 33.984375 113.714844 30.753906 109.1875 31.296875 Z M 109.1875 31.296875 " clip-rule="nonzero"/></clipPath><clipPath id="e73945780b"><path d="M 0.324219 0 L 17.917969 0 L 17.917969 17 L 0.324219 17 Z M 0.324219 0 " clip-rule="nonzero"/></clipPath><clipPath id="61d3d1bfb1"><path d="M -0.0117188 1.277344 L 16.386719 -0.683594 L 18.351562 15.714844 L 1.953125 17.679688 Z M -0.0117188 1.277344 " clip-rule="nonzero"/></clipPath><clipPath id="21c0a29898"><path d="M 8.1875 0.296875 C 3.660156 0.839844 0.425781 4.949219 0.96875 9.480469 C 1.511719 14.007812 5.621094 17.238281 10.152344 16.695312 C 14.679688 16.152344 17.910156 12.042969 17.367188 7.515625 C 16.828125 2.984375 12.714844 -0.246094 8.1875 0.296875 Z M 8.1875 0.296875 " clip-rule="nonzero"/></clipPath><clipPath id="1386915ba8"><rect x="0" width="18" y="0" height="17"/></clipPath><clipPath id="b7f1ec7345"><path d="M 102 32 L 118 32 L 118 47 L 102 47 Z M 102 32 " clip-rule="nonzero"/></clipPath><clipPath id="4bee5b1282"><path d="M 102.183594 33.070312 L 116.445312 31.359375 L 118.15625 45.625 L 103.890625 47.332031 Z M 102.183594 33.070312 " clip-rule="nonzero"/></clipPath><clipPath id="8ed3aacf3d"><path d="M 109.316406 32.214844 C 105.375 32.6875 102.566406 36.261719 103.035156 40.203125 C 103.507812 44.140625 107.085938 46.949219 111.023438 46.480469 C 114.960938 46.007812 117.773438 42.429688 117.300781 38.492188 C 116.828125 34.554688 113.253906 31.742188 109.316406 32.214844 Z M 109.316406 32.214844 " clip-rule="nonzero"/></clipPath><clipPath id="e602a4c500"><path d="M 0.515625 0 L 15.96875 0 L 15.96875 15 L 0.515625 15 Z M 0.515625 0 " clip-rule="nonzero"/></clipPath><clipPath id="9f4a7f22a5"><path d="M 0.183594 1.070312 L 14.445312 -0.640625 L 16.15625 13.625 L 1.890625 15.332031 Z M 0.183594 1.070312 " clip-rule="nonzero"/></clipPath><clipPath id="e12a0c4c44"><path d="M 7.316406 0.214844 C 3.375 0.6875 0.566406 4.261719 1.035156 8.203125 C 1.507812 12.140625 5.085938 14.949219 9.023438 14.480469 C 12.960938 14.007812 15.773438 10.429688 15.300781 6.492188 C 14.828125 2.554688 11.253906 -0.257812 7.316406 0.214844 Z M 7.316406 0.214844 " clip-rule="nonzero"/></clipPath><clipPath id="dcd8c71540"><rect x="0" width="16" y="0" height="15"/></clipPath><clipPath id="751770bb92"><path d="M 104 33 L 117 33 L 117 46 L 104 46 Z M 104 33 " clip-rule="nonzero"/></clipPath><clipPath id="e5e60a700a"><path d="M 103.324219 33.96875 L 115.546875 32.503906 L 117.011719 44.726562 L 104.789062 46.191406 Z M 103.324219 33.96875 " clip-rule="nonzero"/></clipPath><clipPath id="063f56cce9"><path d="M 109.4375 33.234375 C 106.0625 33.640625 103.652344 36.703125 104.058594 40.078125 C 104.460938 43.453125 107.527344 45.863281 110.902344 45.457031 C 114.277344 45.054688 116.683594 41.992188 116.28125 38.613281 C 115.875 35.238281 112.8125 32.832031 109.4375 33.234375 Z M 109.4375 33.234375 " clip-rule="nonzero"/></clipPath><clipPath id="5ea224b889"><path d="M 0 0 L 12.777344 0 L 12.777344 12.882812 L 0 12.882812 Z M 0 0 " clip-rule="nonzero"/></clipPath><clipPath id="e54dc1e00b"><path d="M -0.675781 0.96875 L 11.546875 -0.496094 L 13.011719 11.726562 L 0.789062 13.191406 Z M -0.675781 0.96875 " clip-rule="nonzero"/></clipPath><clipPath id="a5d723a74d"><path d="M 5.4375 0.234375 C 2.0625 0.640625 -0.347656 3.703125 0.0585938 7.078125 C 0.460938 10.453125 3.527344 12.863281 6.902344 12.457031 C 10.277344 12.054688 12.683594 8.992188 12.28125 5.613281 C 11.875 2.238281 8.8125 -0.167969 5.4375 0.234375 Z M 5.4375 0.234375 " clip-rule="nonzero"/></clipPath><clipPath id="5f5fdaa1b0"><rect x="0" width="13" y="0" height="13"/></clipPath><clipPath id="2a6848f456"><path d="M 105 34 L 116 34 L 116 45 L 105 45 Z M 105 34 " clip-rule="nonzero"/></clipPath><clipPath id="6026ff46a3"><path d="M 104.628906 34.992188 L 114.523438 33.808594 L 115.707031 43.703125 L 105.8125 44.886719 Z M 104.628906 34.992188 " clip-rule="nonzero"/></clipPath><clipPath id="ff65ada5f9"><path d="M 109.578125 34.398438 C 106.84375 34.726562 104.894531 37.207031 105.222656 39.941406 C 105.546875 42.671875 108.027344 44.621094 110.761719 44.292969 C 113.492188 43.96875 115.445312 41.488281 115.117188 38.753906 C 114.789062 36.023438 112.308594 34.074219 109.578125 34.398438 Z M 109.578125 34.398438 " clip-rule="nonzero"/></clipPath><clipPath id="e4db3d54a5"><path d="M 0 0 L 10.589844 0 L 10.589844 10.695312 L 0 10.695312 Z M 0 0 " clip-rule="nonzero"/></clipPath><clipPath id="1caae587d7"><path d="M -0.371094 0.992188 L 9.523438 -0.191406 L 10.707031 9.703125 L 0.8125 10.886719 Z M -0.371094 0.992188 " clip-rule="nonzero"/></clipPath><clipPath id="778b9370fd"><path d="M 4.578125 0.398438 C 1.84375 0.726562 -0.105469 3.207031 0.222656 5.941406 C 0.546875 8.671875 3.027344 10.621094 5.761719 10.292969 C 8.492188 9.96875 10.445312 7.488281 10.117188 4.753906 C 9.789062 2.023438 7.308594 0.0742188 4.578125 0.398438 Z M 4.578125 0.398438 " clip-rule="nonzero"/></clipPath><clipPath id="a4c619e23c"><rect x="0" width="11" y="0" height="11"/></clipPath><clipPath id="c039d86182"><path d="M 115 35 L 130 35 L 130 42 L 115 42 Z M 115 35 " clip-rule="nonzero"/></clipPath><clipPath id="bdb108c3de"><path d="M 116.375 41.335938 L 115.730469 35.972656 L 128.890625 34.398438 L 129.535156 39.761719 Z M 116.375 41.335938 " clip-rule="nonzero"/></clipPath><clipPath id="1ce013aba9"><path d="M 129.203125 37.082031 L 115.730469 35.972656 L 116.375 41.335938 Z M 129.203125 37.082031 " clip-rule="nonzero"/></clipPath><clipPath id="9a096a1717"><path d="M 0.589844 0.898438 L 14.378906 0.898438 L 14.378906 6.367188 L 0.589844 6.367188 Z M 0.589844 0.898438 " clip-rule="nonzero"/></clipPath><clipPath id="6d0aa536fb"><path d="M 1.375 6.335938 L 0.730469 0.972656 L 13.890625 -0.601562 L 14.535156 4.761719 Z M 1.375 6.335938 " clip-rule="nonzero"/></clipPath><clipPath id="a8f1ebebf5"><path d="M 14.203125 2.082031 L 0.730469 0.972656 L 1.375 6.335938 Z M 14.203125 2.082031 " clip-rule="nonzero"/></clipPath><clipPath id="68d8209f59"><rect x="0" width="15" y="0" height="7"/></clipPath><clipPath id="62214974b5"><path d="M 114 36 L 125 36 L 125 41 L 114 41 Z M 114 36 " clip-rule="nonzero"/></clipPath><clipPath id="88652e0806"><path d="M 115.351562 40.59375 L 114.902344 36.839844 L 124.394531 35.703125 L 124.84375 39.457031 Z M 115.351562 40.59375 " clip-rule="nonzero"/></clipPath><clipPath id="75229917cc"><path d="M 124.613281 37.582031 L 114.902344 36.839844 L 115.351562 40.59375 Z M 124.613281 37.582031 " clip-rule="nonzero"/></clipPath><clipPath id="a802b497f2"><path d="M 0.875 0.609375 L 10.625 0.609375 L 10.625 4.652344 L 0.875 4.652344 Z M 0.875 0.609375 " clip-rule="nonzero"/></clipPath><clipPath id="21a12860ba"><path d="M 1.351562 4.59375 L 0.902344 0.839844 L 10.394531 -0.296875 L 10.84375 3.457031 Z M 1.351562 4.59375 " clip-rule="nonzero"/></clipPath><clipPath id="d4d16846aa"><path d="M 10.613281 1.582031 L 0.902344 0.839844 L 1.351562 4.59375 Z M 10.613281 1.582031 " clip-rule="nonzero"/></clipPath><clipPath id="af870fb3ae"><rect x="0" width="11" y="0" height="5"/></clipPath><clipPath id="7fbaf9be10"><path d="M 112 37 L 121 37 L 121 41 L 112 41 Z M 112 37 " clip-rule="nonzero"/></clipPath><clipPath id="7a2c2fc986"><path d="M 112.601562 40.230469 L 112.308594 37.773438 L 120.5625 36.785156 L 120.859375 39.242188 Z M 112.601562 40.230469 " clip-rule="nonzero"/></clipPath><clipPath id="b672b9cb75"><path d="M 120.707031 38.015625 L 112.308594 37.773438 L 112.601562 40.230469 Z M 120.707031 38.015625 " clip-rule="nonzero"/></clipPath><clipPath id="f14f995ef1"><path d="M 0.261719 0.5625 L 8.820312 0.5625 L 8.820312 3.414062 L 0.261719 3.414062 Z M 0.261719 0.5625 " clip-rule="nonzero"/></clipPath><clipPath id="cb741ff860"><path d="M 0.601562 3.230469 L 0.308594 0.773438 L 8.5625 -0.214844 L 8.859375 2.242188 Z M 0.601562 3.230469 " clip-rule="nonzero"/></clipPath><clipPath id="b12207f804"><path d="M 8.707031 1.015625 L 0.308594 0.773438 L 0.601562 3.230469 Z M 8.707031 1.015625 " clip-rule="nonzero"/></clipPath><clipPath id="b468d1f4fb"><rect x="0" width="9" y="0" height="4"/></clipPath><clipPath id="9d2b5ff47c"><path d="M 91 37 L 105 37 L 105 43 L 91 43 Z M 91 37 " clip-rule="nonzero"/></clipPath><clipPath id="561b8c5ef5"><path d="M 103.957031 37.347656 L 104.601562 42.710938 L 91.441406 44.289062 L 90.796875 38.921875 Z M 103.957031 37.347656 " clip-rule="nonzero"/></clipPath><clipPath id="fd18d4ce1e"><path d="M 91.140625 41.601562 L 104.601562 42.710938 L 103.957031 37.347656 Z M 91.140625 41.601562 " clip-rule="nonzero"/></clipPath><clipPath id="be26c90b28"><path d="M 0.101562 0.324219 L 13.652344 0.324219 L 13.652344 5.792969 L 0.101562 5.792969 Z M 0.101562 0.324219 " clip-rule="nonzero"/></clipPath><clipPath id="e8cf3d763f"><path d="M 12.957031 0.347656 L 13.601562 5.710938 L 0.441406 7.289062 L -0.203125 1.921875 Z M 12.957031 0.347656 " clip-rule="nonzero"/></clipPath><clipPath id="b3f13cf3e2"><path d="M 0.140625 4.601562 L 13.601562 5.710938 L 12.957031 0.347656 Z M 0.140625 4.601562 " clip-rule="nonzero"/></clipPath><clipPath id="c388ea3dbe"><rect x="0" width="14" y="0" height="6"/></clipPath><clipPath id="7c45568ab0"><path d="M 95 38 L 106 38 L 106 42 L 95 42 Z M 95 38 " clip-rule="nonzero"/></clipPath><clipPath id="6760c16f2a"><path d="M 104.976562 38.085938 L 105.425781 41.84375 L 95.933594 42.980469 L 95.484375 39.222656 Z M 104.976562 38.085938 " clip-rule="nonzero"/></clipPath><clipPath id="8d40f74dc6"><path d="M 95.714844 41.101562 L 105.425781 41.84375 L 104.976562 38.085938 Z M 95.714844 41.101562 " clip-rule="nonzero"/></clipPath><clipPath id="41dd00d210"><path d="M 0.621094 0.0390625 L 10.605469 0.0390625 L 10.605469 4 L 0.621094 4 Z M 0.621094 0.0390625 " clip-rule="nonzero"/></clipPath><clipPath id="5eb918188d"><path d="M 9.976562 0.0859375 L 10.425781 3.84375 L 0.933594 4.980469 L 0.484375 1.222656 Z M 9.976562 0.0859375 " clip-rule="nonzero"/></clipPath><clipPath id="8bf6859ca5"><path d="M 0.714844 3.101562 L 10.425781 3.84375 L 9.976562 0.0859375 Z M 0.714844 3.101562 " clip-rule="nonzero"/></clipPath><clipPath id="75c1c5b6dd"><rect x="0" width="11" y="0" height="4"/></clipPath><clipPath id="1179e6f6c5"><path d="M 99 38 L 109 38 L 109 41 L 99 41 Z M 99 38 " clip-rule="nonzero"/></clipPath><clipPath id="155044f62a"><path d="M 107.734375 38.453125 L 108.027344 40.910156 L 99.828125 41.894531 L 99.535156 39.4375 Z M 107.734375 38.453125 " clip-rule="nonzero"/></clipPath><clipPath id="ca78815ae4"><path d="M 99.6875 40.664062 L 108.027344 40.910156 L 107.734375 38.453125 Z M 99.6875 40.664062 " clip-rule="nonzero"/></clipPath><clipPath id="eb869622cd"><path d="M 0.660156 0.277344 L 9.21875 0.277344 L 9.21875 3 L 0.660156 3 Z M 0.660156 0.277344 " clip-rule="nonzero"/></clipPath><clipPath id="09c6bab62e"><path d="M 8.734375 0.453125 L 9.027344 2.910156 L 0.828125 3.894531 L 0.535156 1.4375 Z M 8.734375 0.453125 " clip-rule="nonzero"/></clipPath><clipPath id="01a7c0a57c"><path d="M 0.6875 2.664062 L 9.027344 2.910156 L 8.734375 0.453125 Z M 0.6875 2.664062 " clip-rule="nonzero"/></clipPath><clipPath id="c1e2c97d74"><rect x="0" width="10" y="0" height="3"/></clipPath><clipPath id="409a824f5e"><path d="M 108 39 L 116 39 L 116 42 L 108 42 Z M 108 39 " clip-rule="nonzero"/></clipPath><clipPath id="4372f72c03"><path d="M 108.859375 41.59375 L 108.730469 40.027344 L 115.449219 39.460938 L 115.582031 41.027344 Z M 108.859375 41.59375 " clip-rule="nonzero"/></clipPath><clipPath id="0c969e3e9e"><path d="M 108.792969 40.808594 L 115.445312 39.460938 L 115.574219 41.027344 Z M 108.792969 40.808594 " clip-rule="nonzero"/></clipPath><clipPath id="1ef9758573"><path d="M 0.695312 0.226562 L 7.589844 0.226562 L 7.589844 2.128906 L 0.695312 2.128906 Z M 0.695312 0.226562 " clip-rule="nonzero"/></clipPath><clipPath id="05a2561f31"><path d="M 0.859375 2.59375 L 0.730469 1.027344 L 7.449219 0.460938 L 7.582031 2.027344 Z M 0.859375 2.59375 " clip-rule="nonzero"/></clipPath><clipPath id="b06fa0d7e6"><path d="M 0.792969 1.808594 L 7.445312 0.460938 L 7.574219 2.027344 Z M 0.792969 1.808594 " clip-rule="nonzero"/></clipPath><clipPath id="5465b62e19"><rect x="0" width="8" y="0" height="3"/></clipPath><clipPath id="b511bc4db8"><path d="M 4 2 L 73 2 L 73 52.003906 L 4 52.003906 Z M 4 2 " clip-rule="nonzero"/></clipPath><clipPath id="27d8243b62"><rect x="0" width="69" y="0" height="51"/></clipPath></defs><g transform="matrix(1, 0, 0, 1, 84, 0)"><g clip-path="url(#c015b95765)"><g fill="#000000" fill-opacity="1"><g transform="translate(1.052587, 24.385031)"><g><path d="M 2.5625 0 L 2.5625 -20.890625 L 4.921875 -20.890625 L 4.921875 -11.609375 L 17.0625 -11.609375 L 17.0625 -20.890625 L 19.4375 -20.890625 L 19.4375 0 L 17.0625 0 L 17.0625 -9.3125 L 4.921875 -9.3125 L 4.921875 0 Z M 2.5625 0 "/></g></g></g><g fill="#000000" fill-opacity="1"><g transform="translate(23.03847, 24.385031)"><g><path d="M 1.671875 0 L 1.671875 -3.21875 L 4.734375 -3.21875 L 4.734375 0 Z M 1.671875 0 "/></g></g></g><g fill="#000000" fill-opacity="1"><g transform="translate(29.441816, 24.385031)"><g><path d="M 2.5625 0 L 2.5625 -20.890625 L 11.953125 -20.890625 C 14.179688 -20.890625 15.9375 -20.28125 17.21875 -19.0625 C 18.507812 -17.851562 19.15625 -16.222656 19.15625 -14.171875 C 19.15625 -12.109375 18.507812 -10.46875 17.21875 -9.25 C 15.9375 -8.039062 14.179688 -7.4375 11.953125 -7.4375 L 4.921875 -7.4375 L 4.921875 0 Z M 4.921875 -9.65625 L 11.796875 -9.65625 C 13.441406 -9.65625 14.679688 -10.050781 15.515625 -10.84375 C 16.359375 -11.644531 16.78125 -12.753906 16.78125 -14.171875 C 16.78125 -15.554688 16.359375 -16.644531 15.515625 -17.4375 C 14.679688 -18.238281 13.441406 -18.640625 11.796875 -18.640625 L 4.921875 -18.640625 Z M 4.921875 -9.65625 "/></g></g></g><g fill="#000000" fill-opacity="1"><g transform="translate(47.263938, 24.385031)"><g><path d="M 1.671875 0 L 1.671875 -3.21875 L 4.734375 -3.21875 L 4.734375 0 Z M 1.671875 0 "/></g></g></g></g></g><g clip-path="url(#61130de068)"><g transform="matrix(1, 0, 0, 1, 84, 22)"><g clip-path="url(#eb3c84ce7c)"><g clip-path="url(#385a7d2a0e)"><g fill="#000000" fill-opacity="1"><g transform="translate(0.918121, 26.347406)"><g><path d="M 2.5625 0 L 2.5625 -20.890625 L 4.921875 -20.890625 L 4.921875 -2.265625 L 16.3125 -2.265625 L 16.3125 0 Z M 2.5625 0 "/></g></g></g></g></g></g></g><g clip-path="url(#84b3b91185)"><g transform="matrix(1, 0, 0, 1, 119, 22)"><g clip-path="url(#4a2387a8d3)"><g clip-path="url(#f959aeb547)"><g fill="#000000" fill-opacity="1"><g transform="translate(0.632138, 26.347406)"><g><path d="M 6.34375 0 L 0.15625 -15.765625 L 2.75 -15.765625 L 7.734375 -2.53125 L 12.6875 -15.765625 L 15.265625 -15.765625 L 9.109375 0 Z M 6.34375 0 "/></g></g></g></g><g fill="#000000" fill-opacity="1"><g transform="translate(15.741516, 26.347406)"><g><path d="M 9.046875 0.25 C 7.453125 0.25 6.054688 -0.109375 4.859375 -0.828125 C 3.660156 -1.554688 2.726562 -2.539062 2.0625 -3.78125 C 1.40625 -5.019531 1.078125 -6.390625 1.078125 -7.890625 C 1.078125 -9.398438 1.390625 -10.769531 2.015625 -12 C 2.648438 -13.226562 3.554688 -14.207031 4.734375 -14.9375 C 5.910156 -15.664062 7.296875 -16.03125 8.890625 -16.03125 C 10.515625 -16.03125 11.910156 -15.664062 13.078125 -14.9375 C 14.242188 -14.207031 15.140625 -13.226562 15.765625 -12 C 16.398438 -10.769531 16.71875 -9.398438 16.71875 -7.890625 L 16.71875 -6.9375 L 3.5 -6.9375 C 3.625 -6.007812 3.921875 -5.160156 4.390625 -4.390625 C 4.867188 -3.628906 5.507812 -3.019531 6.3125 -2.5625 C 7.113281 -2.113281 8.035156 -1.890625 9.078125 -1.890625 C 10.191406 -1.890625 11.128906 -2.132812 11.890625 -2.625 C 12.648438 -3.125 13.238281 -3.765625 13.65625 -4.546875 L 16.25 -4.546875 C 15.695312 -3.128906 14.828125 -1.972656 13.640625 -1.078125 C 12.453125 -0.191406 10.921875 0.25 9.046875 0.25 Z M 3.53125 -9.15625 L 14.265625 -9.15625 C 14.046875 -10.5 13.472656 -11.617188 12.546875 -12.515625 C 11.628906 -13.421875 10.410156 -13.875 8.890625 -13.875 C 7.378906 -13.875 6.164062 -13.421875 5.25 -12.515625 C 4.332031 -11.617188 3.757812 -10.5 3.53125 -9.15625 Z M 3.53125 -9.15625 "/></g></g></g><g fill="#000000" fill-opacity="1"><g transform="translate(33.311292, 26.347406)"><g><path d="M 8.828125 0.25 C 7.253906 0.25 5.890625 -0.109375 4.734375 -0.828125 C 3.578125 -1.554688 2.675781 -2.539062 2.03125 -3.78125 C 1.394531 -5.019531 1.078125 -6.390625 1.078125 -7.890625 C 1.078125 -9.398438 1.394531 -10.769531 2.03125 -12 C 2.675781 -13.226562 3.578125 -14.207031 4.734375 -14.9375 C 5.890625 -15.664062 7.253906 -16.03125 8.828125 -16.03125 C 10.703125 -16.03125 12.296875 -15.546875 13.609375 -14.578125 C 14.921875 -13.609375 15.8125 -12.359375 16.28125 -10.828125 L 13.71875 -10.828125 C 13.363281 -11.722656 12.789062 -12.453125 12 -13.015625 C 11.21875 -13.585938 10.269531 -13.875 9.15625 -13.875 C 7.988281 -13.875 6.972656 -13.597656 6.109375 -13.046875 C 5.253906 -12.503906 4.59375 -11.78125 4.125 -10.875 C 3.664062 -9.976562 3.4375 -8.984375 3.4375 -7.890625 C 3.4375 -6.816406 3.664062 -5.820312 4.125 -4.90625 C 4.59375 -3.988281 5.253906 -3.253906 6.109375 -2.703125 C 6.972656 -2.160156 7.988281 -1.890625 9.15625 -1.890625 C 10.269531 -1.890625 11.21875 -2.171875 12 -2.734375 C 12.789062 -3.304688 13.363281 -4.046875 13.71875 -4.953125 L 16.28125 -4.953125 C 15.8125 -3.421875 14.921875 -2.171875 13.609375 -1.203125 C 12.296875 -0.234375 10.703125 0.25 8.828125 0.25 Z M 8.828125 0.25 "/></g></g></g><g fill="#000000" fill-opacity="1"><g transform="translate(50.471008, 26.347406)"><g><path d="M 2.046875 0 L 2.046875 -15.765625 L 4.421875 -15.765625 L 4.421875 -11.890625 C 4.503906 -12.160156 4.664062 -12.519531 4.90625 -12.96875 C 5.144531 -13.425781 5.492188 -13.882812 5.953125 -14.34375 C 6.421875 -14.8125 7.003906 -15.207031 7.703125 -15.53125 C 8.410156 -15.863281 9.25 -16.03125 10.21875 -16.03125 L 10.375 -16.03125 L 10.375 -13.65625 L 10.09375 -13.65625 C 8.914062 -13.65625 7.898438 -13.332031 7.046875 -12.6875 C 6.191406 -12.050781 5.539062 -11.222656 5.09375 -10.203125 C 4.644531 -9.179688 4.421875 -8.09375 4.421875 -6.9375 L 4.421875 0 Z M 2.046875 0 "/></g></g></g><g fill="#000000" fill-opacity="1"><g transform="translate(60.943478, 26.347406)"><g><path d="M 8.703125 0.25 C 7.171875 0.25 5.832031 -0.109375 4.6875 -0.828125 C 3.539062 -1.554688 2.648438 -2.539062 2.015625 -3.78125 C 1.390625 -5.019531 1.078125 -6.390625 1.078125 -7.890625 C 1.078125 -9.398438 1.390625 -10.769531 2.015625 -12 C 2.648438 -13.226562 3.539062 -14.207031 4.6875 -14.9375 C 5.832031 -15.664062 7.171875 -16.03125 8.703125 -16.03125 C 10.003906 -16.03125 11.125 -15.773438 12.0625 -15.265625 C 13 -14.765625 13.765625 -14.082031 14.359375 -13.21875 L 14.359375 -15.765625 L 16.71875 -15.765625 L 16.71875 0 L 14.359375 0 L 14.359375 -2.53125 C 13.765625 -1.6875 13 -1.007812 12.0625 -0.5 C 11.125 0 10.003906 0.25 8.703125 0.25 Z M 9.015625 -1.890625 C 10.191406 -1.890625 11.1875 -2.160156 12 -2.703125 C 12.8125 -3.253906 13.425781 -3.988281 13.84375 -4.90625 C 14.269531 -5.820312 14.484375 -6.816406 14.484375 -7.890625 C 14.484375 -8.984375 14.269531 -9.976562 13.84375 -10.875 C 13.425781 -11.78125 12.8125 -12.503906 12 -13.046875 C 11.1875 -13.597656 10.191406 -13.875 9.015625 -13.875 C 7.859375 -13.875 6.859375 -13.597656 6.015625 -13.046875 C 5.179688 -12.503906 4.539062 -11.78125 4.09375 -10.875 C 3.65625 -9.976562 3.4375 -8.984375 3.4375 -7.890625 C 3.4375 -6.816406 3.65625 -5.820312 4.09375 -4.90625 C 4.539062 -3.988281 5.179688 -3.253906 6.015625 -2.703125 C 6.859375 -2.160156 7.859375 -1.890625 9.015625 -1.890625 Z M 9.015625 -1.890625 "/></g></g></g><g fill="#000000" fill-opacity="1"><g transform="translate(79.711916, 26.347406)"><g><path d="M 3.125 0 L 3.125 -13.6875 L 0.40625 -13.6875 L 0.40625 -15.765625 L 3.125 -15.765625 L 3.125 -17.15625 C 3.125 -18.882812 3.644531 -20.175781 4.6875 -21.03125 C 5.726562 -21.894531 7.148438 -22.328125 8.953125 -22.328125 L 9.15625 -22.328125 L 9.15625 -20.09375 L 8.828125 -20.09375 C 7.734375 -20.09375 6.898438 -19.84375 6.328125 -19.34375 C 5.765625 -18.851562 5.484375 -18.0625 5.484375 -16.96875 L 5.484375 -15.765625 L 9.15625 -15.765625 L 9.15625 -13.6875 L 5.484375 -13.6875 L 5.484375 0 Z M 3.125 0 "/></g></g></g><g clip-path="url(#b3d44c2cf5)"><g fill="#000000" fill-opacity="1"><g transform="translate(89.395794, 26.347406)"><g><path d="M 3.75 0 L 3.75 -13.6875 L 0.53125 -13.6875 L 0.53125 -15.765625 L 3.75 -15.765625 L 3.75 -21.421875 L 6.125 -21.421875 L 6.125 -15.765625 L 9.75 -15.765625 L 9.75 -13.6875 L 6.125 -13.6875 L 6.125 0 Z M 3.75 0 "/></g></g></g></g></g></g></g><g clip-path="url(#592c0bcd28)"><g clip-path="url(#707df33e1b)"><g clip-path="url(#4bde41e4b1)"><g transform="matrix(1, 0, 0, 1, 84, 35)"><g clip-path="url(#50b140dac1)"><g clip-path="url(#73bd30a5ad)"><g clip-path="url(#439bc9f5f2)"><g clip-path="url(#ebf7e88cd7)"><path fill="#ffeb99" d="M 19.601562 0.566406 L 20.679688 9.542969 L 1.179688 11.878906 L 0.105469 2.898438 Z M 19.601562 0.566406 " fill-opacity="1" fill-rule="nonzero"/></g></g></g></g></g></g></g></g><g clip-path="url(#10a0316583)"><g clip-path="url(#0ff7d2e2be)"><g clip-path="url(#d075d8ed3f)"><g transform="matrix(1, 0, 0, 1, 115, 34)"><g clip-path="url(#85603a3aba)"><g clip-path="url(#fd292319a5)"><g clip-path="url(#81806740f7)"><g clip-path="url(#0e430af1c2)"><path fill="#ffeb99" d="M 1.320312 9.332031 L 0.320312 0.347656 L 19.835938 -1.828125 L 20.835938 7.160156 Z M 1.320312 9.332031 " fill-opacity="1" fill-rule="nonzero"/></g></g></g></g></g></g></g></g><g clip-path="url(#83445c8a70)"><g clip-path="url(#66ec9e77c0)"><g clip-path="url(#4facf6ef10)"><g transform="matrix(1, 0, 0, 1, 101, 30)"><g clip-path="url(#bf3e77fda3)"><g clip-path="url(#d98bb8eac7)"><g clip-path="url(#98fc3343ae)"><g clip-path="url(#4468f9f90f)"><path fill="#ffeb99" d="M -1.011719 1.496094 L 17.171875 -0.683594 L 19.347656 17.5 L 1.167969 19.675781 Z M -1.011719 1.496094 " fill-opacity="1" fill-rule="nonzero"/></g></g></g></g></g></g></g></g><g clip-path="url(#333e9b5d7f)"><g clip-path="url(#719fb740dd)"><g clip-path="url(#bc555616a2)"><g transform="matrix(1, 0, 0, 1, 114, 35)"><g clip-path="url(#11f4e3d1da)"><g clip-path="url(#bf15d89ed3)"><g clip-path="url(#4bea32248c)"><g clip-path="url(#c3f46e8504)"><path fill="#ffffff" d="M 1.773438 7.433594 L 0.902344 0.164062 L 18.339844 -1.925781 L 19.210938 5.34375 Z M 1.773438 7.433594 " fill-opacity="1" fill-rule="nonzero"/></g></g></g></g></g></g></g></g><g clip-path="url(#a436b90d99)"><g clip-path="url(#4906d1ff35)"><g clip-path="url(#ea8a5537f0)"><g transform="matrix(1, 0, 0, 1, 86, 36)"><g clip-path="url(#5dc7163ab0)"><g clip-path="url(#f66381ad5a)"><g clip-path="url(#39fdfd3816)"><g clip-path="url(#5f1f392b8f)"><path fill="#ffffff" d="M 17.738281 0.359375 L 18.621094 7.625 L 1.21875 9.746094 L 0.332031 2.476562 Z M 17.738281 0.359375 " fill-opacity="1" fill-rule="nonzero"/></g></g></g></g></g></g></g></g><g clip-path="url(#b010dbd9fb)"><g clip-path="url(#b34c2d9eb3)"><g clip-path="url(#9d9924a294)"><g transform="matrix(1, 0, 0, 1, 101, 31)"><g clip-path="url(#1386915ba8)"><g clip-path="url(#e73945780b)"><g clip-path="url(#61d3d1bfb1)"><g clip-path="url(#21c0a29898)"><path fill="#ffffff" d="M -0.0117188 1.277344 L 16.386719 -0.683594 L 18.351562 15.714844 L 1.953125 17.679688 Z M -0.0117188 1.277344 " fill-opacity="1" fill-rule="nonzero"/></g></g></g></g></g></g></g></g><g clip-path="url(#b7f1ec7345)"><g clip-path="url(#4bee5b1282)"><g clip-path="url(#8ed3aacf3d)"><g transform="matrix(1, 0, 0, 1, 102, 32)"><g clip-path="url(#dcd8c71540)"><g clip-path="url(#e602a4c500)"><g clip-path="url(#9f4a7f22a5)"><g clip-path="url(#e12a0c4c44)"><path fill="#ffbd59" d="M 0.183594 1.070312 L 14.445312 -0.640625 L 16.15625 13.625 L 1.890625 15.332031 Z M 0.183594 1.070312 " fill-opacity="1" fill-rule="nonzero"/></g></g></g></g></g></g></g></g><g clip-path="url(#751770bb92)"><g clip-path="url(#e5e60a700a)"><g clip-path="url(#063f56cce9)"><g transform="matrix(1, 0, 0, 1, 104, 33)"><g clip-path="url(#5f5fdaa1b0)"><g clip-path="url(#5ea224b889)"><g clip-path="url(#e54dc1e00b)"><g clip-path="url(#a5d723a74d)"><path fill="#737373" d="M -0.675781 0.96875 L 11.546875 -0.496094 L 13.011719 11.726562 L 0.789062 13.191406 Z M -0.675781 0.96875 " fill-opacity="1" fill-rule="nonzero"/></g></g></g></g></g></g></g></g><g clip-path="url(#2a6848f456)"><g clip-path="url(#6026ff46a3)"><g clip-path="url(#ff65ada5f9)"><g transform="matrix(1, 0, 0, 1, 105, 34)"><g clip-path="url(#a4c619e23c)"><g clip-path="url(#e4db3d54a5)"><g clip-path="url(#1caae587d7)"><g clip-path="url(#778b9370fd)"><path fill="#000000" d="M -0.371094 0.992188 L 9.523438 -0.191406 L 10.707031 9.703125 L 0.8125 10.886719 Z M -0.371094 0.992188 " fill-opacity="1" fill-rule="nonzero"/></g></g></g></g></g></g></g></g><g clip-path="url(#c039d86182)"><g clip-path="url(#bdb108c3de)"><g clip-path="url(#1ce013aba9)"><g transform="matrix(1, 0, 0, 1, 115, 35)"><g clip-path="url(#68d8209f59)"><g clip-path="url(#9a096a1717)"><g clip-path="url(#6d0aa536fb)"><g clip-path="url(#a8f1ebebf5)"><path fill="#ffbd59" d="M 1.375 6.335938 L 0.730469 0.972656 L 13.890625 -0.601562 L 14.535156 4.761719 Z M 1.375 6.335938 " fill-opacity="1" fill-rule="nonzero"/></g></g></g></g></g></g></g></g><g clip-path="url(#62214974b5)"><g clip-path="url(#88652e0806)"><g clip-path="url(#75229917cc)"><g transform="matrix(1, 0, 0, 1, 114, 36)"><g clip-path="url(#af870fb3ae)"><g clip-path="url(#a802b497f2)"><g clip-path="url(#21a12860ba)"><g clip-path="url(#d4d16846aa)"><path fill="#737373" d="M 1.351562 4.59375 L 0.902344 0.839844 L 10.394531 -0.296875 L 10.84375 3.457031 Z M 1.351562 4.59375 " fill-opacity="1" fill-rule="nonzero"/></g></g></g></g></g></g></g></g><g clip-path="url(#7fbaf9be10)"><g clip-path="url(#7a2c2fc986)"><g clip-path="url(#b672b9cb75)"><g transform="matrix(1, 0, 0, 1, 112, 37)"><g clip-path="url(#b468d1f4fb)"><g clip-path="url(#f14f995ef1)"><g clip-path="url(#cb741ff860)"><g clip-path="url(#b12207f804)"><path fill="#000000" d="M 0.601562 3.230469 L 0.308594 0.773438 L 8.554688 -0.214844 L 8.847656 2.242188 Z M 0.601562 3.230469 " fill-opacity="1" fill-rule="nonzero"/></g></g></g></g></g></g></g></g><g clip-path="url(#9d2b5ff47c)"><g clip-path="url(#561b8c5ef5)"><g clip-path="url(#fd18d4ce1e)"><g transform="matrix(1, 0, 0, 1, 91, 37)"><g clip-path="url(#c388ea3dbe)"><g clip-path="url(#be26c90b28)"><g clip-path="url(#e8cf3d763f)"><g clip-path="url(#b3f13cf3e2)"><path fill="#ffbd59" d="M 12.957031 0.347656 L 13.601562 5.710938 L 0.460938 7.285156 L -0.179688 1.921875 Z M 12.957031 0.347656 " fill-opacity="1" fill-rule="nonzero"/></g></g></g></g></g></g></g></g><g clip-path="url(#7c45568ab0)"><g clip-path="url(#6760c16f2a)"><g clip-path="url(#8d40f74dc6)"><g transform="matrix(1, 0, 0, 1, 95, 38)"><g clip-path="url(#75c1c5b6dd)"><g clip-path="url(#41dd00d210)"><g clip-path="url(#5eb918188d)"><g clip-path="url(#8bf6859ca5)"><path fill="#737373" d="M 9.976562 0.0859375 L 10.425781 3.84375 L 0.933594 4.980469 L 0.484375 1.222656 Z M 9.976562 0.0859375 " fill-opacity="1" fill-rule="nonzero"/></g></g></g></g></g></g></g></g><g clip-path="url(#1179e6f6c5)"><g clip-path="url(#155044f62a)"><g clip-path="url(#ca78815ae4)"><g transform="matrix(1, 0, 0, 1, 99, 38)"><g clip-path="url(#c1e2c97d74)"><g clip-path="url(#eb869622cd)"><g clip-path="url(#09c6bab62e)"><g clip-path="url(#01a7c0a57c)"><path fill="#000000" d="M 8.734375 0.453125 L 9.027344 2.910156 L 0.839844 3.894531 L 0.542969 1.433594 Z M 8.734375 0.453125 " fill-opacity="1" fill-rule="nonzero"/></g></g></g></g></g></g></g></g><g clip-path="url(#409a824f5e)"><g clip-path="url(#4372f72c03)"><g clip-path="url(#0c969e3e9e)"><g transform="matrix(1, 0, 0, 1, 108, 39)"><g clip-path="url(#5465b62e19)"><g clip-path="url(#1ef9758573)"><g clip-path="url(#05a2561f31)"><g clip-path="url(#b06fa0d7e6)"><path fill="#737373" d="M 0.859375 2.59375 L 0.730469 1.027344 L 7.445312 0.460938 L 7.574219 2.027344 Z M 0.859375 2.59375 " fill-opacity="1" fill-rule="nonzero"/></g></g></g></g></g></g></g></g><g clip-path="url(#b511bc4db8)"><g transform="matrix(1, 0, 0, 1, 4, 2)"><g clip-path="url(#27d8243b62)"><g fill="#000000" fill-opacity="1"><g transform="translate(5.583684, 12.705209)"><g><path d="M 6.625 -2.421875 C 6.625 -2.066406 6.546875 -1.726562 6.390625 -1.40625 C 6.222656 -1.082031 6.003906 -0.816406 5.734375 -0.609375 C 5.203125 -0.203125 4.492188 0 3.609375 0 L 0.953125 0 L 0.953125 -8.6875 L 3.3125 -8.6875 C 4.570312 -8.6875 5.394531 -8.289062 5.78125 -7.5 C 5.914062 -7.21875 5.984375 -6.9375 5.984375 -6.65625 C 5.984375 -6.363281 5.960938 -6.132812 5.921875 -5.96875 C 5.867188 -5.800781 5.800781 -5.640625 5.71875 -5.484375 C 5.519531 -5.148438 5.269531 -4.914062 4.96875 -4.78125 C 5.476562 -4.644531 5.878906 -4.375 6.171875 -3.96875 C 6.472656 -3.550781 6.625 -3.035156 6.625 -2.421875 Z M 5.09375 -6.515625 C 5.09375 -7.390625 4.5 -7.828125 3.3125 -7.828125 L 1.84375 -7.828125 L 1.84375 -5.125 L 3.5625 -5.125 C 4.019531 -5.125 4.390625 -5.238281 4.671875 -5.46875 C 4.953125 -5.695312 5.09375 -6.046875 5.09375 -6.515625 Z M 5.734375 -2.59375 C 5.734375 -2.84375 5.6875 -3.066406 5.59375 -3.265625 C 5.488281 -3.460938 5.359375 -3.632812 5.203125 -3.78125 C 4.867188 -4.070312 4.472656 -4.21875 4.015625 -4.21875 L 1.84375 -4.21875 L 1.84375 -0.859375 L 3.875 -0.859375 C 4.414062 -0.859375 4.859375 -1.015625 5.203125 -1.328125 C 5.554688 -1.648438 5.734375 -2.070312 5.734375 -2.59375 Z M 5.734375 -2.59375 "/></g></g></g><g fill="#000000" fill-opacity="1"><g transform="translate(12.468235, 12.705209)"><g><path d="M 1.84375 0 L 0.953125 0 L 0.953125 -8.6875 L 1.84375 -8.6875 Z M 1.84375 0 "/></g></g></g><g fill="#000000" fill-opacity="1"><g transform="translate(15.278251, 12.705209)"><g><path d="M 8.609375 -4.359375 C 8.609375 -5.335938 8.257812 -6.175781 7.5625 -6.875 C 6.863281 -7.570312 6.019531 -7.921875 5.03125 -7.921875 C 4.050781 -7.921875 3.210938 -7.570312 2.515625 -6.875 C 1.816406 -6.175781 1.46875 -5.335938 1.46875 -4.359375 C 1.46875 -3.378906 1.816406 -2.539062 2.515625 -1.84375 C 3.210938 -1.144531 4.050781 -0.796875 5.03125 -0.796875 C 6.019531 -0.796875 6.863281 -1.144531 7.5625 -1.84375 C 8.257812 -2.539062 8.609375 -3.378906 8.609375 -4.359375 Z M 9.5 -4.359375 C 9.5 -3.753906 9.382812 -3.175781 9.15625 -2.625 C 8.914062 -2.082031 8.597656 -1.613281 8.203125 -1.21875 C 7.785156 -0.800781 7.304688 -0.476562 6.765625 -0.25 C 6.222656 -0.0078125 5.644531 0.109375 5.03125 0.109375 C 4.414062 0.109375 3.84375 -0.0078125 3.3125 -0.25 C 2.757812 -0.476562 2.285156 -0.800781 1.890625 -1.21875 C 1.484375 -1.613281 1.164062 -2.082031 0.9375 -2.625 C 0.695312 -3.175781 0.578125 -3.753906 0.578125 -4.359375 C 0.578125 -4.972656 0.695312 -5.554688 0.9375 -6.109375 C 1.164062 -6.648438 1.484375 -7.117188 1.890625 -7.515625 C 2.285156 -7.921875 2.757812 -8.238281 3.3125 -8.46875 C 3.84375 -8.707031 4.414062 -8.828125 5.03125 -8.828125 C 5.644531 -8.828125 6.222656 -8.707031 6.765625 -8.46875 C 7.304688 -8.238281 7.785156 -7.921875 8.203125 -7.515625 C 8.597656 -7.117188 8.914062 -6.648438 9.15625 -6.109375 C 9.382812 -5.554688 9.5 -4.972656 9.5 -4.359375 Z M 9.5 -4.359375 "/></g></g></g><g fill="#000000" fill-opacity="1"><g transform="translate(25.356, 12.705209)"><g><path d="M 9.515625 -4.0625 L 9.4375 -3.515625 C 9.25 -2.460938 8.734375 -1.597656 7.890625 -0.921875 C 7.046875 -0.234375 6.097656 0.109375 5.046875 0.109375 C 4.429688 0.109375 3.851562 -0.0078125 3.3125 -0.25 C 2.757812 -0.476562 2.285156 -0.800781 1.890625 -1.21875 C 1.484375 -1.613281 1.164062 -2.082031 0.9375 -2.625 C 0.695312 -3.175781 0.578125 -3.757812 0.578125 -4.375 C 0.578125 -4.988281 0.695312 -5.566406 0.9375 -6.109375 C 1.164062 -6.660156 1.484375 -7.140625 1.890625 -7.546875 C 2.285156 -7.941406 2.757812 -8.257812 3.3125 -8.5 C 3.851562 -8.726562 4.398438 -8.84375 4.953125 -8.84375 C 5.992188 -8.84375 6.910156 -8.550781 7.703125 -7.96875 C 8.492188 -7.375 9.035156 -6.597656 9.328125 -5.640625 L 8.390625 -5.640625 C 8.117188 -6.347656 7.679688 -6.910156 7.078125 -7.328125 C 6.460938 -7.742188 5.785156 -7.953125 5.046875 -7.953125 C 4.054688 -7.953125 3.210938 -7.601562 2.515625 -6.90625 C 1.816406 -6.207031 1.46875 -5.363281 1.46875 -4.375 C 1.46875 -3.394531 1.816406 -2.550781 2.515625 -1.84375 C 3.203125 -1.144531 4.046875 -0.796875 5.046875 -0.796875 C 5.828125 -0.796875 6.539062 -1.019531 7.1875 -1.46875 C 7.820312 -1.925781 8.269531 -2.53125 8.53125 -3.28125 L 5 -3.28125 L 5 -4.0625 Z M 9.515625 -4.0625 "/></g></g></g><g fill="#000000" fill-opacity="1"><g transform="translate(35.459297, 12.705209)"><g><path d="M 1.84375 -4.296875 L 3.875 -4.296875 C 4.375 -4.296875 4.785156 -4.460938 5.109375 -4.796875 C 5.441406 -5.148438 5.609375 -5.582031 5.609375 -6.09375 C 5.609375 -6.59375 5.445312 -7.007812 5.125 -7.34375 C 4.8125 -7.664062 4.394531 -7.828125 3.875 -7.828125 L 1.84375 -7.828125 Z M 6.5 -6.0625 C 6.5 -5.300781 6.226562 -4.671875 5.6875 -4.171875 C 5.21875 -3.734375 4.644531 -3.492188 3.96875 -3.453125 L 6.640625 0 L 5.4375 0 L 2.890625 -3.4375 L 1.84375 -3.4375 L 1.84375 0 L 0.953125 0 L 0.953125 -8.6875 L 3.734375 -8.6875 C 4.515625 -8.6875 5.164062 -8.441406 5.6875 -7.953125 C 6.226562 -7.441406 6.5 -6.8125 6.5 -6.0625 Z M 6.5 -6.0625 "/></g></g></g><g fill="#000000" fill-opacity="1"><g transform="translate(42.407709, 12.705209)"><g><path d="M 2.359375 -3.1875 L 5.515625 -3.1875 L 3.9375 -7.1875 Z M 7.75 0 L 6.78125 0 L 5.84375 -2.359375 L 2.03125 -2.359375 L 1.09375 0 L 0.125 0 L 3.9375 -9.28125 Z M 5.671875 -11.40625 L 4.265625 -9.578125 L 3.546875 -9.578125 L 4.5625 -11.40625 Z M 5.671875 -11.40625 "/></g></g></g><g fill="#000000" fill-opacity="1"><g transform="translate(50.288538, 12.705209)"><g><path d="M 6.109375 -7.84375 L 1.84375 -7.84375 L 1.84375 -4.765625 L 5.984375 -4.765625 L 5.984375 -3.921875 L 1.84375 -3.921875 L 1.84375 0 L 0.953125 0 L 0.953125 -8.6875 L 6.109375 -8.6875 Z M 6.109375 -7.84375 "/></g></g></g><g fill="#000000" fill-opacity="1"><g transform="translate(56.662169, 12.705209)"><g><path d="M 1.84375 0 L 0.953125 0 L 0.953125 -8.6875 L 1.84375 -8.6875 Z M 1.84375 0 "/></g></g></g><g fill="#000000" fill-opacity="1"><g transform="translate(59.472184, 12.705209)"><g><path d="M 2.359375 -3.1875 L 5.515625 -3.1875 L 3.9375 -7.1875 Z M 7.75 0 L 6.78125 0 L 5.84375 -2.359375 L 2.03125 -2.359375 L 1.09375 0 L 0.125 0 L 3.9375 -9.28125 Z M 7.75 0 "/></g></g></g><g fill="#000000" fill-opacity="1"><g transform="translate(43.901866, 29.735512)"><g><path d="M 4.3125 -4.078125 L 4.3125 0 L 3.421875 0 L 3.421875 -4.078125 L 0.125 -8.6875 L 1.28125 -8.6875 L 3.875 -4.96875 L 6.453125 -8.6875 L 7.59375 -8.6875 Z M 4.3125 -4.078125 "/></g></g></g><g fill="#000000" fill-opacity="1"><g transform="translate(51.629425, 29.735512)"><g/></g></g><g fill="#000000" fill-opacity="1"><g transform="translate(55.078084, 29.735512)"><g><path d="M 6.109375 0 L 0.953125 0 L 0.953125 -8.6875 L 6.109375 -8.6875 L 6.109375 -7.84375 L 1.84375 -7.84375 L 1.84375 -4.765625 L 5.984375 -4.765625 L 5.984375 -3.921875 L 1.84375 -3.921875 L 1.84375 -0.828125 L 6.109375 -0.828125 Z M 6.109375 0 "/></g></g></g><g fill="#000000" fill-opacity="1"><g transform="translate(62.154218, 29.735512)"><g><path d="M 1.84375 -0.890625 L 4.953125 -0.890625 L 4.953125 0 L 0.953125 0 L 0.953125 -8.6875 L 1.84375 -8.6875 Z M 1.84375 -0.890625 "/></g></g></g><g fill="#000000" fill-opacity="1"><g transform="translate(0.594338, 46.765815)"><g><path d="M 1.84375 -0.890625 L 4.953125 -0.890625 L 4.953125 0 L 0.953125 0 L 0.953125 -8.6875 L 1.84375 -8.6875 Z M 1.84375 -0.890625 "/></g></g></g><g fill="#000000" fill-opacity="1"><g transform="translate(5.805655, 46.765815)"><g><path d="M 6.109375 0 L 0.953125 0 L 0.953125 -8.6875 L 6.109375 -8.6875 L 6.109375 -7.84375 L 1.84375 -7.84375 L 1.84375 -4.765625 L 5.984375 -4.765625 L 5.984375 -3.921875 L 1.84375 -3.921875 L 1.84375 -0.828125 L 6.109375 -0.828125 Z M 6.109375 0 "/></g></g></g><g fill="#000000" fill-opacity="1"><g transform="translate(12.881789, 46.765815)"><g><path d="M 9.515625 -4.0625 L 9.4375 -3.515625 C 9.25 -2.460938 8.734375 -1.597656 7.890625 -0.921875 C 7.046875 -0.234375 6.097656 0.109375 5.046875 0.109375 C 4.429688 0.109375 3.851562 -0.0078125 3.3125 -0.25 C 2.757812 -0.476562 2.285156 -0.800781 1.890625 -1.21875 C 1.484375 -1.613281 1.164062 -2.082031 0.9375 -2.625 C 0.695312 -3.175781 0.578125 -3.757812 0.578125 -4.375 C 0.578125 -4.988281 0.695312 -5.566406 0.9375 -6.109375 C 1.164062 -6.660156 1.484375 -7.140625 1.890625 -7.546875 C 2.285156 -7.941406 2.757812 -8.257812 3.3125 -8.5 C 3.851562 -8.726562 4.398438 -8.84375 4.953125 -8.84375 C 5.992188 -8.84375 6.910156 -8.550781 7.703125 -7.96875 C 8.492188 -7.375 9.035156 -6.597656 9.328125 -5.640625 L 8.390625 -5.640625 C 8.117188 -6.347656 7.679688 -6.910156 7.078125 -7.328125 C 6.460938 -7.742188 5.785156 -7.953125 5.046875 -7.953125 C 4.054688 -7.953125 3.210938 -7.601562 2.515625 -6.90625 C 1.816406 -6.207031 1.46875 -5.363281 1.46875 -4.375 C 1.46875 -3.394531 1.816406 -2.550781 2.515625 -1.84375 C 3.203125 -1.144531 4.046875 -0.796875 5.046875 -0.796875 C 5.828125 -0.796875 6.539062 -1.019531 7.1875 -1.46875 C 7.820312 -1.925781 8.269531 -2.53125 8.53125 -3.28125 L 5 -3.28125 L 5 -4.0625 Z M 9.515625 -4.0625 "/></g></g></g><g fill="#000000" fill-opacity="1"><g transform="translate(22.320912, 46.765815)"><g><path d="M 2.359375 -3.1875 L 5.515625 -3.1875 L 3.9375 -7.1875 Z M 7.75 0 L 6.78125 0 L 5.84375 -2.359375 L 2.03125 -2.359375 L 1.09375 0 L 0.125 0 L 3.9375 -9.28125 Z M 7.75 0 "/></g></g></g><g fill="#000000" fill-opacity="1"><g transform="translate(30.201741, 46.765815)"><g><path d="M 7.703125 -4.34375 C 7.703125 -3.707031 7.585938 -3.128906 7.359375 -2.609375 C 7.117188 -2.066406 6.796875 -1.601562 6.390625 -1.21875 C 5.992188 -0.84375 5.523438 -0.546875 4.984375 -0.328125 C 4.429688 -0.109375 3.847656 0 3.234375 0 L 0.953125 0 L 0.953125 -8.6875 L 3.234375 -8.6875 C 3.847656 -8.6875 4.429688 -8.578125 4.984375 -8.359375 C 5.523438 -8.140625 5.992188 -7.835938 6.390625 -7.453125 C 6.796875 -7.066406 7.117188 -6.613281 7.359375 -6.09375 C 7.585938 -5.550781 7.703125 -4.96875 7.703125 -4.34375 Z M 6.828125 -4.34375 C 6.828125 -5.332031 6.476562 -6.15625 5.78125 -6.8125 C 5.101562 -7.457031 4.257812 -7.78125 3.25 -7.78125 L 1.84375 -7.78125 L 1.84375 -0.890625 L 3.25 -0.890625 C 4.257812 -0.890625 5.101562 -1.210938 5.78125 -1.859375 C 6.476562 -2.523438 6.828125 -3.351562 6.828125 -4.34375 Z M 6.828125 -4.34375 "/></g></g></g><g fill="#000000" fill-opacity="1"><g transform="translate(38.478534, 46.765815)"><g><path d="M 8.609375 -4.359375 C 8.609375 -5.335938 8.257812 -6.175781 7.5625 -6.875 C 6.863281 -7.570312 6.019531 -7.921875 5.03125 -7.921875 C 4.050781 -7.921875 3.210938 -7.570312 2.515625 -6.875 C 1.816406 -6.175781 1.46875 -5.335938 1.46875 -4.359375 C 1.46875 -3.378906 1.816406 -2.539062 2.515625 -1.84375 C 3.210938 -1.144531 4.050781 -0.796875 5.03125 -0.796875 C 6.019531 -0.796875 6.863281 -1.144531 7.5625 -1.84375 C 8.257812 -2.539062 8.609375 -3.378906 8.609375 -4.359375 Z M 9.5 -4.359375 C 9.5 -3.753906 9.382812 -3.175781 9.15625 -2.625 C 8.914062 -2.082031 8.597656 -1.613281 8.203125 -1.21875 C 7.785156 -0.800781 7.304688 -0.476562 6.765625 -0.25 C 6.222656 -0.0078125 5.644531 0.109375 5.03125 0.109375 C 4.414062 0.109375 3.84375 -0.0078125 3.3125 -0.25 C 2.757812 -0.476562 2.285156 -0.800781 1.890625 -1.21875 C 1.484375 -1.613281 1.164062 -2.082031 0.9375 -2.625 C 0.695312 -3.175781 0.578125 -3.753906 0.578125 -4.359375 C 0.578125 -4.972656 0.695312 -5.554688 0.9375 -6.109375 C 1.164062 -6.648438 1.484375 -7.117188 1.890625 -7.515625 C 2.285156 -7.921875 2.757812 -8.238281 3.3125 -8.46875 C 3.84375 -8.707031 4.414062 -8.828125 5.03125 -8.828125 C 5.644531 -8.828125 6.222656 -8.707031 6.765625 -8.46875 C 7.304688 -8.238281 7.785156 -7.921875 8.203125 -7.515625 C 8.597656 -7.117188 8.914062 -6.648438 9.15625 -6.109375 C 9.382812 -5.554688 9.5 -4.972656 9.5 -4.359375 Z M 9.5 -4.359375 "/></g></g></g><g fill="#000000" fill-opacity="1"><g transform="translate(48.556283, 46.765815)"><g/></g></g><g fill="#000000" fill-opacity="1"><g transform="translate(52.004942, 46.765815)"><g><path d="M 7.703125 -4.34375 C 7.703125 -3.707031 7.585938 -3.128906 7.359375 -2.609375 C 7.117188 -2.066406 6.796875 -1.601562 6.390625 -1.21875 C 5.992188 -0.84375 5.523438 -0.546875 4.984375 -0.328125 C 4.429688 -0.109375 3.847656 0 3.234375 0 L 0.953125 0 L 0.953125 -8.6875 L 3.234375 -8.6875 C 3.847656 -8.6875 4.429688 -8.578125 4.984375 -8.359375 C 5.523438 -8.140625 5.992188 -7.835938 6.390625 -7.453125 C 6.796875 -7.066406 7.117188 -6.613281 7.359375 -6.09375 C 7.585938 -5.550781 7.703125 -4.96875 7.703125 -4.34375 Z M 6.828125 -4.34375 C 6.828125 -5.332031 6.476562 -6.15625 5.78125 -6.8125 C 5.101562 -7.457031 4.257812 -7.78125 3.25 -7.78125 L 1.84375 -7.78125 L 1.84375 -0.890625 L 3.25 -0.890625 C 4.257812 -0.890625 5.101562 -1.210938 5.78125 -1.859375 C 6.476562 -2.523438 6.828125 -3.351562 6.828125 -4.34375 Z M 6.828125 -4.34375 "/></g></g></g><g fill="#000000" fill-opacity="1"><g transform="translate(60.281735, 46.765815)"><g><path d="M 6.109375 0 L 0.953125 0 L 0.953125 -8.6875 L 6.109375 -8.6875 L 6.109375 -7.84375 L 1.84375 -7.84375 L 1.84375 -4.765625 L 5.984375 -4.765625 L 5.984375 -3.921875 L 1.84375 -3.921875 L 1.84375 -0.828125 L 6.109375 -0.828125 Z M 6.109375 0 "/></g></g></g></g></g></g><path stroke-linecap="butt" transform="matrix(0, -0.742924, 0.742924, 0, 74.934652, 48.912602)" fill="none" stroke-linejoin="miter" d="M -0.00196545 2.001849 L 61.521154 2.001849 " stroke="#ffeb99" stroke-width="4" stroke-opacity="1" stroke-miterlimit="4"/><path stroke-linecap="butt" transform="matrix(0, -0.742924, 0.742924, 0, 77.414104, 48.912602)" fill="none" stroke-linejoin="miter" d="M -0.00196545 1.99796 L 61.521154 1.99796 " stroke="#ffeb99" stroke-width="4" stroke-opacity="1" stroke-miterlimit="4"/><path stroke-linecap="butt" transform="matrix(0, -0.742924, 0.742924, 0, 78.157028, 48.853088)" fill="none" stroke-linejoin="miter" d="M 0.00205274 2.002226 L 61.519914 2.002226 " stroke="#ffeb99" stroke-width="4" stroke-opacity="1" stroke-miterlimit="4"/></svg>